<svg width="16" height="17" viewBox="0 0 16 17" fill="none" xmlns="http://www.w3.org/2000/svg">
<path d="M8 0.488037C3.58862 0.488037 0 4.07666 0 8.48804C0 12.8994 3.58862 16.488 8 16.488C12.4114 16.488 16 12.8994 16 8.48804C16 4.07666 12.4114 0.488037 8 0.488037ZM11.8047 12.626C11.6747 12.756 11.504 12.8214 11.3334 12.8214C11.1627 12.8214 10.9919 12.756 10.8621 12.626L7.52869 9.29272C7.40332 9.16809 7.33337 8.99866 7.33337 8.82141V4.48804C7.33337 4.11938 7.63196 3.82141 8 3.82141C8.36804 3.82141 8.66663 4.11938 8.66663 4.48804V8.54541L11.8047 11.6833C12.0653 11.9441 12.0653 12.3654 11.8047 12.626Z" fill="#171717"/>
</svg>
