<svg width="27" height="29" viewBox="0 0 27 29" fill="none" xmlns="http://www.w3.org/2000/svg">
<path d="M18.4067 21.8006V23.935C18.4067 26.2889 16.5769 28.2038 14.3277 28.2038H4.07905C1.8298 28.2038 0 26.2889 0 23.935V5.15244C0 2.79857 1.8298 0.883667 4.07905 0.883667H14.3277C16.5769 0.883667 18.4067 2.79857 18.4067 5.15244V7.28682C18.4067 7.87628 17.9502 8.35402 17.3869 8.35402C16.8237 8.35402 16.3672 7.87628 16.3672 7.28682V5.15244C16.3672 3.97561 15.4522 3.01805 14.3277 3.01805H4.07905C2.95452 3.01805 2.03952 3.97561 2.03952 5.15244V23.935C2.03952 25.1119 2.95452 26.0694 4.07905 26.0694H14.3277C15.4522 26.0694 16.3672 25.1119 16.3672 23.935V21.8006C16.3672 21.2112 16.8237 20.7335 17.3869 20.7335C17.9502 20.7335 18.4067 21.2112 18.4067 21.8006ZM25.3592 12.7105L23.0757 10.3208C22.6774 9.90395 22.0316 9.90395 21.6335 10.3208C21.2351 10.7375 21.2351 11.4132 21.6335 11.8299L23.2577 13.5299H11.0134C10.4502 13.5299 9.99367 14.0076 9.99367 14.5971C9.99367 15.1866 10.4502 15.6643 11.0134 15.6643H23.2577L21.6335 17.3643C21.2351 17.781 21.2351 18.4567 21.6335 18.8734C21.8327 19.0818 22.0936 19.186 22.3545 19.186C22.6156 19.186 22.8765 19.0818 23.0757 18.8734L25.3592 16.4837C26.3533 15.4433 26.3533 13.7508 25.3592 12.7105Z" fill="#FEFEFE"/>
</svg>
