<svg width="42" height="42" viewBox="0 0 42 42" fill="none" xmlns="http://www.w3.org/2000/svg">
<path d="M5.25 29.75C5.25 30.7165 6.0335 31.5 7 31.5H35C35.9665 31.5 36.75 30.7165 36.75 29.75C36.75 28.7835 35.9665 28 35 28H7C6.0335 28 5.25 28.7835 5.25 29.75ZM5.25 21C5.25 21.9665 6.0335 22.75 7 22.75H35C35.9665 22.75 36.75 21.9665 36.75 21C36.75 20.0335 35.9665 19.25 35 19.25H7C6.0335 19.25 5.25 20.0335 5.25 21ZM7 10.5C6.0335 10.5 5.25 11.2835 5.25 12.25C5.25 13.2165 6.0335 14 7 14H35C35.9665 14 36.75 13.2165 36.75 12.25C36.75 11.2835 35.9665 10.5 35 10.5H7Z" fill="black"/>
</svg>
