<svg width="27" height="28" viewBox="0 0 27 28" fill="none" xmlns="http://www.w3.org/2000/svg">
<path d="M25.6399 12.2998C25.6394 12.2992 25.6388 12.2986 25.6382 12.298L15.0322 1.19913C14.5802 0.725822 13.9791 0.465088 13.3398 0.465088C12.7005 0.465088 12.0994 0.725614 11.6471 1.19892L1.04675 12.2921C1.04318 12.2959 1.03961 12.2998 1.03604 12.3036C0.107693 13.2807 0.10928 14.8661 1.0406 15.8407C1.46609 16.2862 2.02806 16.5442 2.6289 16.5712C2.6533 16.5737 2.6779 16.5749 2.70269 16.5749H3.12541V24.743C3.12541 26.3593 4.38205 27.6744 5.92691 27.6744H10.0763C10.4968 27.6744 10.838 27.3175 10.838 26.8772V20.4735C10.838 19.7359 11.4113 19.136 12.1161 19.136H14.5635C15.2683 19.136 15.8415 19.7359 15.8415 20.4735V26.8772C15.8415 27.3175 16.1825 27.6744 16.6033 27.6744H20.7527C22.2975 27.6744 23.5541 26.3593 23.5541 24.743V16.5749H23.9461C24.5852 16.5749 25.1863 16.3144 25.6388 15.8411C26.5711 14.8648 26.5715 13.2767 25.6399 12.2998Z" fill="#FEFEFE"/>
</svg>
