<svg width="29" height="24" viewBox="0 0 29 24" fill="none" xmlns="http://www.w3.org/2000/svg">
<path d="M26.5611 14.5504V6.72453L26.8716 6.62706C28.0649 6.25224 28.3154 5.61769 28.3154 5.15134C28.3154 4.685 28.0648 4.05044 26.8715 3.6758L16.6597 0.469707C16.0307 0.272244 15.2064 0.163513 14.3387 0.163513C13.471 0.163513 12.6468 0.272244 12.0177 0.469707L1.80585 3.6758C0.612362 4.05044 0.361816 4.685 0.361816 5.1514C0.361816 5.61775 0.612307 6.25236 1.8058 6.62712L5.62501 7.82618V14.287C5.62501 15.0893 6.12332 16.2194 8.49725 17.0475C10.0696 17.596 12.1442 17.8981 14.3386 17.8981C16.533 17.8981 18.6076 17.596 20.18 17.0475C22.5539 16.2193 23.0522 15.0893 23.0522 14.287V7.82623L24.9232 7.23882V14.5504C23.9047 14.9094 23.1688 15.9175 23.1688 17.1029V20.7748C23.1688 22.2597 24.3231 23.4678 25.7421 23.4678C27.161 23.4678 28.3154 22.2598 28.3154 20.7748V17.1029C28.3155 15.9175 27.5796 14.9093 26.5611 14.5504ZM12.4883 2.11152C12.9619 1.96279 13.6363 1.87755 14.3387 1.87755C15.041 1.87755 15.7155 1.96279 16.189 2.11146L25.8716 5.1514L21.9939 6.36886C21.9917 6.3696 21.9895 6.37023 21.9873 6.37097L16.1891 8.19139C15.7155 8.34006 15.0411 8.42531 14.3388 8.42531C13.6365 8.42531 12.962 8.34006 12.4884 8.19139L6.6902 6.37097C6.68796 6.37023 6.68578 6.3696 6.68354 6.36886L2.80585 5.1514L12.4883 2.11152ZM21.4144 12.0363C21.4144 14.3975 21.1171 14.9137 19.6621 15.4213C18.2523 15.9131 16.3617 16.1839 14.3387 16.1839C12.3156 16.1839 10.425 15.9131 9.01526 15.4213C7.56036 14.9137 7.26292 14.3974 7.26292 14.287V8.34035L12.0177 9.83315C12.6467 10.0306 13.471 10.1393 14.3387 10.1393C15.2064 10.1393 16.0306 10.0306 16.6597 9.83315L21.4144 8.34035V12.0363ZM26.6776 20.7748C26.6776 21.3145 26.258 21.7537 25.7422 21.7537C25.2264 21.7537 24.8068 21.3146 24.8068 20.7748V17.1028C24.8068 16.563 25.2263 16.1238 25.7422 16.1238C26.258 16.1238 26.6776 16.563 26.6776 17.1028V20.7748Z" fill="#FEFEFE"/>
</svg>
