<svg width="42" height="41" viewBox="0 0 42 41" fill="none" xmlns="http://www.w3.org/2000/svg">
<path d="M27.8843 0.615108C28.183 1.08444 28.439 1.72444 28.6523 2.53511C28.9083 3.30311 29.0363 4.11377 29.0363 4.96711C29.0363 6.63111 28.6737 7.82577 27.9483 8.55111C27.2657 9.23377 26.327 9.57511 25.1323 9.57511H11.6923V16.8071H25.7083C26.0497 17.2764 26.327 17.8951 26.5403 18.6631C26.7963 19.4311 26.9243 20.2418 26.9243 21.0951C26.9243 22.7164 26.5617 23.8898 25.8363 24.6151C25.1537 25.2978 24.215 25.6391 23.0203 25.6391H11.8203V39.1431C11.351 39.2711 10.6043 39.3991 9.58033 39.5271C8.59899 39.6551 7.61766 39.7191 6.63633 39.7191C5.65499 39.7191 4.78033 39.6338 4.01233 39.4631C3.28699 39.3351 2.66833 39.0791 2.15633 38.6951C1.64433 38.3111 1.26033 37.7778 1.00433 37.0951C0.748327 36.4124 0.620327 35.5164 0.620327 34.4071V6.56711C0.620327 4.73244 1.15366 3.28177 2.22033 2.21511C3.28699 1.14844 4.73766 0.615108 6.57233 0.615108H27.8843ZM29.3058 34.2151C29.3058 32.4231 29.8605 30.9298 30.9698 29.7351C32.0792 28.5404 33.5938 27.9431 35.5138 27.9431C37.4338 27.9431 38.9485 28.5404 40.0578 29.7351C41.1672 30.9298 41.7218 32.4231 41.7218 34.2151C41.7218 36.0071 41.1672 37.5004 40.0578 38.6951C38.9485 39.8898 37.4338 40.4871 35.5138 40.4871C33.5938 40.4871 32.0792 39.8898 30.9698 38.6951C29.8605 37.5004 29.3058 36.0071 29.3058 34.2151Z" fill="#FEFEFE"/>
</svg>
