<svg width="27" height="25" viewBox="0 0 27 25" fill="none" xmlns="http://www.w3.org/2000/svg">
<path d="M23.3354 0.822571H2.97195C1.43573 0.822571 0.185913 2.13052 0.185913 3.73819V17.7332C0.185913 19.3409 1.43573 20.6488 2.97195 20.6488H9.53252C9.6126 20.6488 9.68874 20.689 9.7363 20.7565L12.1299 24.1526C12.3698 24.493 12.7391 24.6893 13.1432 24.6912H13.1493C13.5511 24.6912 13.9197 24.4987 14.1613 24.1623L16.6093 20.7546C16.6568 20.6883 16.7326 20.6488 16.8117 20.6488H23.3354C24.8716 20.6488 26.1214 19.3408 26.1214 17.7331V3.73814C26.1214 2.13047 24.8716 0.822571 23.3354 0.822571ZM24.6017 17.7332C24.6017 17.8584 24.5847 17.9794 24.5536 18.0943L16.7473 10.9331L24.6017 4.11171V17.7332ZM23.3354 2.41291C23.567 2.41291 23.7842 2.47864 23.9711 2.59278L13.9645 11.2832C13.4959 11.6903 12.8157 11.6903 12.3471 11.2832L2.33871 2.59124C2.52512 2.47806 2.74137 2.41291 2.97195 2.41291H23.3354ZM1.75374 18.0943C1.72259 17.9794 1.70557 17.8583 1.70557 17.7332V4.108L9.5621 10.9311L1.75374 18.0943ZM15.3946 19.7989L13.151 22.9222L10.9593 19.8125C10.6266 19.3403 10.0931 19.0584 9.53247 19.0584H3.00807L10.7463 11.9596L11.3766 12.507C11.8921 12.9547 12.5238 13.1785 13.1558 13.1785C13.7876 13.1785 14.4195 12.9546 14.9349 12.507L15.563 11.9615L23.2991 19.0584H16.8117C16.2575 19.0585 15.7277 19.3352 15.3946 19.7989Z" fill="#FEFEFE"/>
</svg>
