<svg width="27" height="29" viewBox="0 0 27 29" fill="none" xmlns="http://www.w3.org/2000/svg">
<path d="M13.9695 28.069H12.3378C11.018 28.069 9.94426 26.9454 9.94426 25.5642V24.9865C9.38318 24.7989 8.83804 24.5621 8.31433 24.2785L7.92312 24.6879C6.97559 25.6807 5.45779 25.6516 4.53778 24.6875L3.38449 23.4807C2.46286 22.5172 2.43635 20.9294 3.3848 19.9379L3.77571 19.5288C3.50469 18.9807 3.27846 18.4103 3.09915 17.823H2.54716C1.22746 17.823 0.153687 16.6994 0.153687 15.3182V13.6105C0.153687 12.2294 1.22746 11.1057 2.54721 11.1057H3.0992C3.27851 10.5185 3.50474 9.94807 3.77576 9.40001L3.38454 8.99065C2.43666 7.99974 2.46281 6.41171 3.38485 5.44786L4.53824 4.24087C5.46038 3.27451 6.97782 3.25039 7.92352 4.24119L8.31439 4.65023C8.83809 4.36666 9.38323 4.12985 9.94431 3.9422V3.36454C9.94431 1.9834 11.018 0.859741 12.3378 0.859741H13.9696C15.2893 0.859741 16.3631 1.9834 16.3631 3.36454V3.94226C16.9241 4.12985 17.4693 4.36666 17.993 4.65028L18.3842 4.24087C19.3317 3.24805 20.8495 3.27717 21.7695 4.24124L22.9228 5.44812C23.8445 6.41155 23.871 7.99942 22.9225 8.99091L22.5316 9.40001C22.8026 9.94807 23.0289 10.5185 23.2082 11.1057H23.7602C25.0799 11.1057 26.1537 12.2294 26.1537 13.6105V15.3182C26.1537 16.6994 25.0799 17.823 23.7602 17.823H23.2082C23.0289 18.4103 22.8026 18.9807 22.5316 19.5288L22.9228 19.9382C23.8707 20.9291 23.8446 22.5171 22.9225 23.481L21.7691 24.688C20.847 25.6543 19.3295 25.6784 18.3839 24.6876L17.993 24.2786C17.4693 24.5622 16.9241 24.799 16.3631 24.9866V25.5644C16.3631 26.9454 15.2893 28.069 13.9695 28.069ZM8.569 22.6043C9.29655 23.0546 10.0796 23.3948 10.8964 23.6154C11.2327 23.7062 11.4677 24.0237 11.4677 24.3872V25.5642C11.4677 26.0663 11.8581 26.4747 12.3378 26.4747H13.9696C14.4493 26.4747 14.8397 26.0663 14.8397 25.5642V24.3872C14.8397 24.0237 15.0747 23.7062 15.4111 23.6154C16.2278 23.3948 17.0109 23.0546 17.7384 22.6043C18.0378 22.4191 18.4189 22.4695 18.6648 22.7268L19.4615 23.5606C19.805 23.9205 20.3566 23.9121 20.6916 23.561L21.8457 22.3532C22.18 22.0039 22.1911 21.4265 21.846 21.0658L21.049 20.2318C20.8031 19.9744 20.755 19.5755 20.932 19.2623C21.3622 18.501 21.6872 17.6815 21.898 16.8267C21.9849 16.4747 22.2882 16.2288 22.6356 16.2288H23.7602C24.2399 16.2288 24.6303 15.8203 24.6303 15.3183V13.6106C24.6303 13.1086 24.2399 12.7001 23.7602 12.7001H22.6356C22.2882 12.7001 21.9849 12.4541 21.898 12.1022C21.6872 11.2474 21.3622 10.4279 20.932 9.66657C20.755 9.35335 20.8031 8.95446 21.049 8.69714L21.8457 7.86337C22.1901 7.50338 22.1811 6.92625 21.846 6.57598L20.692 5.3683C20.3575 5.01777 19.8058 5.00751 19.4618 5.36798L18.6649 6.20206C18.419 6.45944 18.0377 6.50982 17.7385 6.32456C17.0109 5.87428 16.2279 5.53411 15.4111 5.31351C15.0747 5.22269 14.8397 4.90521 14.8397 4.54166V3.36454C14.8397 2.86249 14.4494 2.45404 13.9696 2.45404H12.3379C11.8582 2.45404 11.4678 2.86249 11.4678 3.36454V4.54155C11.4678 4.90511 11.2328 5.22258 10.8964 5.3134C10.0796 5.534 9.2966 5.87417 8.56905 6.32445C8.26965 6.50966 7.88853 6.45928 7.64265 6.20196L6.846 5.36819C6.50251 5.00831 5.95087 5.01665 5.61587 5.36782L4.46176 6.57555C4.12752 6.92492 4.11635 7.50221 4.46146 7.86295L5.25847 8.69703C5.50435 8.95435 5.5525 9.35324 5.37552 9.66647C4.94525 10.4278 4.62025 11.2473 4.40946 12.1021C4.32262 12.4541 4.01926 12.7 3.67191 12.7H2.54721C2.06748 12.7 1.67712 13.1085 1.67712 13.6105V15.3182C1.67712 15.8203 2.06748 16.2287 2.54721 16.2287H3.67186C4.01926 16.2287 4.32257 16.4747 4.40941 16.8267C4.6202 17.6815 4.94525 18.5009 5.37547 19.2623C5.55244 19.5755 5.5043 19.9744 5.25842 20.2317L4.46171 21.0655C4.11732 21.4255 4.1263 22.0026 4.46141 22.3529L5.61541 23.5605C5.94991 23.9111 6.5016 23.9213 6.84559 23.5609L7.64255 22.7268C7.82374 22.5372 8.20069 22.3763 8.569 22.6043Z" fill="#FEFEFE"/>
<path d="M13.1536 20.3845C10.0343 20.3845 7.49658 17.7287 7.49658 14.4643C7.49658 11.2 10.0343 8.54419 13.1536 8.54419C16.273 8.54419 18.8106 11.2 18.8106 14.4643C18.8106 17.7287 16.273 20.3845 13.1536 20.3845ZM13.1536 10.1385C10.8743 10.1385 9.02002 12.0791 9.02002 14.4643C9.02002 16.8496 10.8743 18.7902 13.1536 18.7902C15.4329 18.7902 17.2872 16.8496 17.2872 14.4643C17.2872 12.0791 15.4329 10.1385 13.1536 10.1385Z" fill="#FEFEFE"/>
</svg>
