<svg width="11" height="17" viewBox="0 0 11 17" fill="none" xmlns="http://www.w3.org/2000/svg">
<path d="M9.74487 8.28054C9.67315 9.32263 9.07892 10.0542 8.39285 10.3643C7.66538 10.6929 6.93008 10.5117 6.56297 9.91304C5.96192 8.93285 6.37493 8.25066 6.77431 7.59091C7.22717 6.84282 7.74049 5.99488 7.24816 4.34594C6.85949 3.04416 6.0983 1.95126 4.9857 1.09757C4.63886 0.831475 4.30992 0.63135 4.04297 0.488037C4.41582 1.3956 4.90068 3.08444 4.39421 4.95032C4.07299 6.13385 3.22405 7.03072 2.40304 7.89807C1.3217 9.04051 0.203491 10.2218 0.203491 12.1093C0.203491 13.5735 0.713641 14.74 1.71972 15.5762C2.48159 16.2095 3.25902 16.4561 3.26677 16.458H5.12185L5.08302 16.4573C5.07586 16.4517 4.36912 15.8938 4.35695 15.2541C4.35128 14.955 4.50821 14.6682 4.82337 14.4015C5.29677 14.0009 5.55695 13.5696 5.61885 13.0829C5.6567 12.7853 5.61843 12.4707 5.50212 12.131C6.28729 12.4603 7.09948 13.1793 7.37471 14.0718C7.62189 14.8734 7.39324 15.6977 6.71411 16.458H8.74432C10.0742 15.4162 10.8228 14.1676 10.9696 12.7471C11.1567 10.9359 10.3286 9.23004 9.74487 8.28054Z" fill="#171717"/>
</svg>
